<svg xmlns="http://www.w3.org/2000/svg" viewBox="0 0 695.63 146.02"><defs><style>.cls-1{fill:#fff;}</style></defs><title>signatur</title><g id="Lag_2" data-name="Lag 2"><g id="Lag_2-2" data-name="Lag 2"><path class="cls-1" d="M260.61,30.61c-.62-2.82-8.12-1.09-8.88,1-5.43,15-10.77,30.14-16.3,45.15-.38,1-.78,2.11-1.18,3.17a14.47,14.47,0,0,0-1.74-1.67c-4.75-3.85-11.24-4.18-17-2.77-14.25,3.52-20.3,16.87-22.29,30.25-1.89.08-3.93.59-4.67,1.43,1.05-1.19-1.08-2.66-1.8-3.81-1.09-1.73-2-3.63-2.9-5.44l-6.69-12.83c-.43-.84-1.56-1.12-2.87-1.05-5.25-4.72-13.61-5.21-20.42-3.15-11.13,3.37-16.76,14.13-18.29,25a22.08,22.08,0,0,0-.22,4.09,3.16,3.16,0,0,0-.86-.46c-1.8-.67-4.8,0-6.33,1.11,1.8-1.26-.55-2.92-1.15-4.69a33.33,33.33,0,0,1-1-4.06,84.62,84.62,0,0,1-1.5-11.64A108.88,108.88,0,0,1,126,65.75a182.46,182.46,0,0,1,4.3-19,175.3,175.3,0,0,0,8.7-27.1c.72-3.05-7.95-2-8.81.48-3.07,8.89-6.13,17.86-8.66,26.95q-2.64,6.39-5.79,12.57a166.26,166.26,0,0,1-10.84,18.22c-3.64,5.3-7.5,11.16-12.38,15.4-12.88,11.21-13-23.86-12.79-29.4.7-16,4.46-31.67,8.15-47.18.76-3.2-7.75-1.74-8.81.47A423.47,423.47,0,0,1,47.18,72.58q-8.77,12.83-18.49,25c-5.21,6.53-13,17.78-22.43,17.25-1.55-.09-5.16.13-6,1.78s.36,2.32,2.08,2.41c10.34.58,19.06-4.15,26.22-11.31,8.28-8.28,15.22-18.27,22-27.78Q62.78,62.8,73.23,44.54c-.85,5-1.55,9.92-2,14.94a115.57,115.57,0,0,0-.07,21.45c.48,4.93,1.21,10.26,4.22,14.37,6.67,9.12,19.75,4.08,26.32-2.36a99.73,99.73,0,0,0,14.43-18.7c-.18,1.69-.34,3.38-.45,5.07-.61,9.24-.65,20,2.62,28.82,2.62,7,10.84,8.32,16.71,4.2a3.29,3.29,0,0,0,.6-.55,7.67,7.67,0,0,0,4.83,5.77c4.47,1.92,10,1,14.23-1.09,5.43-2.71,9.23-8,12.65-12.82q2.88-4.08,5.36-8.39l2.75,5.27c1.66,3.19,3.12,7,6.21,9.13s7.77,2.3,11.4.72c1.4,9.87,16.67,8.2,23.84,4.49,11.45-5.93,18.44-17.11,23.43-28.6l-2.68,9.47c-1.82,6.4-3,13.57-5.51,19.83a2.78,2.78,0,0,0-1.61,1.54,1.52,1.52,0,0,0,.32,1.81c1.37,1.56,5.29.82,6.78,0,2.79-1.51,3-3.24,3.88-6.2q1.72-6.12,3.46-12.23,3.48-12.22,6.94-24.44c2.29-8.09,4.64-16.16,6.87-24.26C260.68,44.82,262.2,37.8,260.61,30.61ZM156,107.39c-1.64,2.06-5.05,7.29-8.25,6.77-4.39-.72-3.57-7.13-3.09-10,1.08-6.55,3.62-13.84,9.07-18,4.55-3.51,10.79-2,14,2.38A99.15,99.15,0,0,1,156,107.39Zm61.62.66c-3.3,3-10.07,8.44-14.32,4-2.44-2.55-1.25-6.7-.65-9.73A54.58,54.58,0,0,1,205.49,92c2.19-5.39,7.34-13.57,14.2-13,6.48.52,10.55,8.48,8.49,14.16a1,1,0,0,0,0,.71A51.14,51.14,0,0,1,217.58,108.05Z"/><path class="cls-1" d="M286.34,70c-5.06-.42-10.84,1.68-15.29,3.9-3.75,1.88-8.63,4.67-8.67,9.46,0,5.46,5.63,9.41,8.93,13,7.41,8,12.31,21.82,4.84,31.38-2.83,3.63-7.46,6.8-12.19,5.28a10.58,10.58,0,0,1-6.16-5.26c-1.06-2.1-1.77-7.36,1.41-8.36,1.21-.38,3.61-1.37,2.7-3s-4.61-.76-5.75-.4c-4.54,1.43-8.59,4.79-8.26,10,.31,5,4.63,8.88,9,10.51,9,3.3,20.3-.34,26.53-7.31,7.6-8.47,6.09-20.7.53-29.84-3.22-5.28-9.19-8.77-11.82-14.3-2-4.13.38-6.68,4-8.56.52-.27,9.34-3.83,7.27-.5-1,1.63,2.85,1.9,3.56,1.87,1.85-.08,4.22-.67,5.26-2.35C294.38,72.05,288.88,70.16,286.34,70Z"/><path class="cls-1" d="M374.09,28.25,367.56,46c-1,2.68,7.84,2.19,8.81-.47,3.85-10.48,8-20.9,11.56-31.47,2.48-7.31-.19-12.95-8.1-13.91-15.91-1.93-29.75,12.15-33.58,26.56-4.59,17.28,5.12,32.17,14.26,45.94,5.35,8,10.46,16.21,12.91,25.66a58.12,58.12,0,0,1-.39,30.91c-.94,3.2-3.56,11.45-7.56,12.26-4.8,1-9.71-9.33-11.18-12.56a47.12,47.12,0,0,1-2.37-32.13c.81-2.89-8.07-2.19-8.82.48a49.2,49.2,0,0,0,0,27.09c2.12,7.26,6.35,17,13.64,20.35,6.78,3.15,15.2.18,19.78-5.34,5.5-6.64,7.22-16.11,7.68-24.49A59.39,59.39,0,0,0,378.41,86c-3.68-7.66-8.67-14.56-13.28-21.67-10-15.43-16.43-33.8-4.3-50.19,2.69-3.63,6.51-7.68,10.83-9.32,4-1.5,8.25.35,8.5,4.9.18,3.19-1.74,6.76-2.8,9.64Z"/><path class="cls-1" d="M426.23,66.39q-3.42,5.08-6.68,10.29c-2.06.64-3.65,1.79-2.71,2.82l0,0a16.6,16.6,0,0,0-5.13,1.65C406,84.54,401,90.63,397.25,96c-5.28,7.53-16.87,26.78-5,33.67h0c-.65,1.59-1.29,3.17-1.91,4.77-1.18,3,7.32,1.47,8.44.07l2.33-2.91a2.14,2.14,0,0,0,.27-.43,25.79,25.79,0,0,0,8.24-2.58c5.72-2.89,9.75-8.05,12.67-13.64a66.77,66.77,0,0,0,6.28-20.34c.87-5.47,1.09-11.18-1.91-15.84q3.67-6,7.59-11.77C436.44,63.87,427.69,64.23,426.23,66.39Zm-29.79,50c.63-4.26,2.52-8.44,4.44-12.25a62.5,62.5,0,0,1,8-12.12c1.3-1.56,2.7-3,4.15-4.47a346.94,346.94,0,0,0-16.6,32.55A15.64,15.64,0,0,1,396.44,116.41Zm21.22-11.64a52.92,52.92,0,0,1-5.15,12.53c-1.95,3.28-6.07,9.5-10.48,9.73a346.91,346.91,0,0,1,18.35-37.51C420.49,94.72,418.93,100.29,417.66,104.77Z"/><path class="cls-1" d="M472.79,76.73c-9.34-4.86-22.06-.43-27.79,8a25.13,25.13,0,0,0-2.7,5.32c-2.65-.26-6.77.88-6.74,2.94a167.24,167.24,0,0,0,3.67,33.31c.59,2.81,8.87,1.23,8.94-1.58.25-9.78-.41-20.13,1.45-29.77,1.29-6.7,7-19.49,15.79-14.9C467.69,81.27,476,78.4,472.79,76.73Z"/><path class="cls-1" d="M515.71,89.51c1.63-4.88.79-12.05-5.11-13.5s-10.89,2.48-15,6.09c-5.41,4.82-12,12.93-13.68,21l-1.31.11c-1.28.1-5,.62-5.27,2.35s2.28,2,3.56,1.87c.84-.06,1.72-.14,2.63-.22a14,14,0,0,0,3.47,9c7.9,9.21,23.82,5.94,30-3.47,1.06-1.62-2.88-1.9-3.55-1.87-1.9.07-4.17.68-5.26,2.34-5.68,8.66-15.34,1-15.79-7V106C501.09,103.92,512.36,99.48,515.71,89.51Zm-9.93,3c-3,5.23-8.83,7.87-14.91,9.27,1.48-6.2,6.28-12.4,10.24-16.52,1.49-1.54,3.33-2.77,4.79-4.3l0,0a5.81,5.81,0,0,1,1,1.67C508.23,85.77,507.42,89.61,505.78,92.49Z"/><path class="cls-1" d="M566.6,115.89A130.9,130.9,0,0,1,554.45,88.8c-2.31-7.24-5.1-14.67-13.69-15.56-6.49-.67-13.55,2.4-13.93,9.57a23.39,23.39,0,0,0,.18,4c-1.33.56-2.24,1.36-2,2.25q3.36,11.37,6.71,22.75c.81,2.74,9.47,1.17,9-1.58q-2-10.87-4.08-21.76c-.52-2.82-1.45-6.21-.5-9,.7-2.06,1.14-2.23,2.88-1.08a11,11,0,0,1,3.06,3.27c3.62,5.59,4.72,13.1,7.25,19.24a137,137,0,0,0,8.85,17.58C559.5,120.73,568.22,118.61,566.6,115.89Z"/><path class="cls-1" d="M586.33,78c2.18,1.37,10.55-1.36,7.38-3.34-5.57-3.49-12.84-1.12-17.87,2.29-4.55,3.1-10.67,8.31-8.15,14.42s10.09,8.17,13.74,13.43a11.85,11.85,0,0,1,2.28,5.56c.13,1.35-.25,5.6-2.25,5.82-4,.43-4.41-6.65-3.62-8.89,1-2.72-7.88-2.19-8.81.48-5.3,15,21.19,17.1,23.53,3.78,1.34-7.64-5.75-12.65-11-16.63-3-2.26-6.77-5.54-5.22-9.71C577.43,82.35,583.37,76.16,586.33,78Z"/><path class="cls-1" d="M628.23,105.29c-2.82,6-11.46,5-16.66,2.5-3.88-1.89-4.14-6.78-3-10.7,9.27.19,24-.36,20.74-8.31-1.77-4.29-7.74-5-11.7-4.71A21.82,21.82,0,0,0,604.39,90a18,18,0,0,0-2.46,3c-2.68.8-4.45,3.07-1.86,3.74-2.23,6.29-.56,13.33,7.19,15.45,9.65,2.62,24.71,3.55,29.78-7.34C638.17,102.39,629.44,102.68,628.23,105.29Zm-14.08-16c1.83-1.16,7.09-1.1,6.6,2.3-.18,1.2-5.53,1.34-10.23,1.27A12.72,12.72,0,0,1,614.15,89.29Z"/><path class="cls-1" d="M694.17,126.94l-3.4-9.06q-3.25-8.67-6.5-17.32c-1.64-4.36-3.18-9-7.23-11.69-7.36-4.93-19.51-6.83-27.36-2.16a16.14,16.14,0,0,0-6.61,7.35,5.83,5.83,0,0,0-.71-.83c-2.52-2.37-9.18-1.34-10.19,2.17a1,1,0,0,0,.18,1l.43.41a3.57,3.57,0,0,0,2.41.68c1.22,2.18,2.11,5.59,2.79,7.19l3.44,8.13c1.09,2.56,9.25,1.35,9-1.58-.67-6.69-1.56-14.7,3.06-20.28,4.48-5.42,15.72-.79,19,4.36,3.68,5.86,5.46,13.52,7.89,20,.68,1.81,6.44,14.67,6.68,17.86a2.67,2.67,0,0,0-1.44,1.16c-.83,1.62.37,2.31,2.08,2.41,3.09.17,7.45-.54,8-4.21C695.87,130.57,694.85,128.75,694.17,126.94Z"/></g></g></svg>