<?xml version="1.0" encoding="iso-8859-1"?>
<!-- Generator: Adobe Illustrator 23.0.1, SVG Export Plug-In . SVG Version: 6.00 Build 0)  -->
<svg version="1.1" id="Lag_1" xmlns="http://www.w3.org/2000/svg" xmlns:xlink="http://www.w3.org/1999/xlink" x="0px" y="0px"
	 viewBox="0 0 1000 1000" style="enable-background:new 0 0 1000 1000;" xml:space="preserve">
<title>zebra</title>
<g id="hale">
	<polygon style="fill:#020203;" points="57.943,320.7 30.562,397.663 40.922,391.003 30.562,421.344 40.922,404.323 22.421,447.985 
		40.922,422.084 22.421,477.586 30.562,465.746 10.581,518.288 26.122,496.087 5.401,557.509 23.161,524.208 5.401,590.071 
		23.901,553.069 5.401,617.452 27.602,573.79 2.441,657.413 14.281,636.693 9.101,675.914 70.523,564.17 77.924,428.004 
		77.924,328.1 	"/>
</g>
<g id="h&#xE5;r">
	<polygon style="fill:#1B1B1B;" points="607.784,233.377 616.665,229.676 620.365,229.676 616.665,208.956 624.065,213.396 
		621.845,205.995 626.285,211.916 625.545,202.295 627.025,194.895 632.205,203.035 636.646,208.956 647.746,206.736 
		649.226,200.075 648.486,187.495 656.626,197.115 653.666,186.015 669.207,216.356 669.207,200.815 670.687,183.055 
		677.347,205.255 681.787,225.976 695.848,230.416 700.288,203.035 692.888,188.235 697.328,176.394 703.988,188.975 
		707.688,190.307 712.869,195.635 726.929,188.975 726.929,180.834 726.929,168.254 735.07,173.434 738.03,163.814 740.99,172.694 
		744.69,177.134 746.91,186.015 762.451,174.174 763.191,166.774 765.411,161.594 770.591,167.514 774.291,163.814 775.031,178.614 
		785.392,181.575 790.572,166.034 789.832,159.374 794.272,162.334 794.272,157.894 796.492,162.334 799.452,166.774 
		799.452,157.154 804.632,168.994 818.693,168.994 820.173,151.973 825.353,159.374 827.573,151.973 830.533,165.294 
		832.013,166.034 844.594,162.334 848.294,148.273 852.734,156.414 857.174,146.053 860.134,150.493 864.575,156.414 
		866.055,157.894 874.935,167.514 875.675,154.933 879.375,146.793 883.075,146.053 888.996,142.353 891.216,148.273 
		900.096,144.573 912.677,145.313 916.377,149.753 922.297,143.833 924.517,151.973 931.917,150.493 935.617,154.193 
		941.538,154.193 941.538,157.154 946.718,154.193 945.978,162.334 952.638,166.034 953.378,171.954 961.518,169.734 
		961.518,176.394 968.179,176.394 965.219,181.575 968.179,185.275 971.879,189.715 977.059,197.855 978.539,205.255 
		983.719,211.916 980.759,217.836 985.199,220.056 983.719,222.276 990.38,224.496 988.16,225.976 991.86,231.896 985.199,234.117 
		994.82,239.297 989.64,241.517 987.419,246.697 983.719,248.177 988.16,252.617 979.279,253.357 980.759,259.278 973.359,259.278 
		963.739,254.837 964.479,262.238 967.809,276.668 958.188,264.088 948.568,252.247 943.388,245.587 936.357,240.777 
		929.697,233.377 922.297,228.196 906.016,231.156 888.256,212.656 860.505,210.806 797.602,224.866 736.92,243.367 
		693.998,249.287 645.896,250.767 611.855,238.927 	"/>
	<polygon style="fill:#E7E6E6;" points="612.225,236.337 607.784,224.496 618.145,227.456 618.145,216.356 625.545,237.817 	"/>
	<polyline style="fill:#E7E6E6;" points="644.046,243.737 635.166,210.436 633.686,202.295 638.866,205.255 636.646,197.115 
		646.266,200.075 649.226,194.155 656.626,211.916 663.287,239.297 663.287,246.697 644.046,243.737 	"/>
	<polygon style="fill:#E7E6E6;" points="681.787,243.737 678.087,227.456 678.087,216.356 684.008,220.796 688.448,220.796 
		684.008,209.696 680.307,194.155 693.628,198.595 700.288,203.035 701.768,216.356 704.728,234.857 704.728,241.517 	"/>
	<polygon style="fill:#E7E6E6;" points="721.009,237.077 712.129,218.576 709.909,210.436 709.909,204.515 707.688,194.155 
		707.688,181.575 717.309,188.975 718.049,180.094 720.269,177.134 723.229,185.275 726.929,177.134 730.629,187.495 
		735.07,202.295 739.51,217.096 740.99,228.196 738.77,238.557 	"/>
	<polyline style="fill:#E7E6E6;" points="756.9,234.043 753.57,225.236 749.13,212.656 745.43,203.775 742.47,194.895 
		742.47,185.275 745.43,180.094 748.39,170.474 752.83,177.134 758.01,172.694 762.451,174.174 764.671,181.575 771.331,199.335 
		773.551,208.956 776.511,221.536 776.511,231.156 756.9,234.043 	"/>
	<polygon style="fill:#E7E6E6;" points="786.872,228.936 785.392,216.356 781.691,203.775 779.471,194.155 777.991,188.235 
		772.811,177.134 775.031,171.954 777.251,163.074 782.431,168.994 785.392,162.334 790.572,166.034 794.272,171.214 
		797.972,180.834 800.932,194.155 803.152,210.436 803.152,222.276 	"/>
	<polygon style="fill:#E7E6E6;" points="801.672,166.774 806.112,182.315 809.072,197.115 812.033,210.436 813.513,221.536 
		828.313,214.876 830.533,210.436 830.533,204.515 828.313,195.635 825.353,183.795 823.873,173.434 818.693,168.994 
		818.693,161.594 814.993,155.673 814.993,160.854 807.592,154.193 809.812,166.034 803.152,163.814 	"/>
	<polygon style="fill:#E7E6E6;" points="839.414,214.876 839.414,200.815 834.974,189.715 833.493,177.134 830.533,165.294 
		832.013,154.193 833.493,160.114 837.194,151.973 839.414,160.114 841.634,157.154 845.334,160.854 847.554,166.034 
		852.734,171.954 852.734,182.315 855.694,194.155 855.694,202.295 851.994,208.956 	"/>
	<polygon style="fill:#E7E6E6;" points="863.095,205.255 864.575,197.855 863.095,188.235 863.835,183.055 863.095,177.134 
		863.095,168.254 865.315,162.334 865.315,151.973 869.015,158.634 873.455,163.814 873.455,156.414 874.935,164.554 
		877.895,171.214 879.375,183.055 877.895,193.415 874.935,205.255 873.455,211.916 	"/>
	<polygon style="fill:#E7E6E6;" points="883.075,205.255 885.295,194.155 883.815,181.575 883.815,174.914 885.295,166.774 
		889.736,158.634 894.916,154.193 897.136,163.814 902.316,159.374 902.316,168.254 898.616,183.055 906.756,172.694 
		904.536,182.315 901.576,192.675 896.396,211.176 	"/>
	<polygon style="fill:#E7E6E6;" points="924.517,227.456 937.098,222.276 947.458,214.876 960.038,216.356 954.858,220.796 
		966.699,220.056 966.699,224.496 949.678,228.936 937.098,233.377 932.657,236.337 	"/>
</g>
<g id="hvid">
	<path style="fill:#E7E6E6;" d="M254.051,524.208l-19.241,26.641l-19.241,30.341l-14.801,31.081l-20.721,25.161l-13.321,27.381
		l-11.84,25.901l-8.14,22.201v71.783l5.92,25.161v8.88l5.92,14.801c0,0-39.222,1.48-39.962-0.74s-0.74-64.383-0.74-64.383
		l-6.66-34.041l-2.96-28.861l-3.7-34.781l-3.338-17.805c-0.718-3.836-0.318-7.797,1.154-11.411l28.824-70.688l-45.882,72.523
		l-14.801,27.381l-9.62,24.421l-2.96,22.201v83.623l-2.22,8.14l8.14,13.32l2.22,12.581l-22.201-0.74h-11.84l-7.4-39.221V690.715
		l-6.66-33.301l-0.74-25.901v-19.241l7.4-14.061l19.241-19.981l7.4-20.721l12.58-12.58l0.74-16.281l0.74-24.421l-1.48-26.641
		l-1.48-27.381l-4.44-19.241l-11.1-39.222l-0.74-44.402l5.18-29.601l21.461-38.482l19.981-25.161l23.681-16.281l21.461-14.801
		l34.041-11.84l52.542-3.7l42.182,3.7l37.741,5.18l50.322,10.36l47.362,6.66l42.182,4.44h31.081l37.742-3.7l39.962-8.14l27.381-1.48
		l12.581,2.96l19.981,5.18l34.041,11.1l39.962-2.22l37.001-6.66l39.962-5.92l27.381-6.66l28.121-6.66l24.421-4.44l19.981-6.66
		h30.341l33.301,20.721l11.841,12.581l19.241,19.241l12.581,11.84l8.88,26.641l1.48,8.88l-4.44,17.761l-5.92,35.521v9.62
		l2.22,13.321l2.96,21.461l1.48,19.241l-81.403,57.589l-18.501-33.908l-11.1-11.84l-12.581-13.321l-14.801-13.321l-13.32-12.581
		l-6.66-13.321l-5.18,3.7l-32.561,23.681l-37.742,28.861l-12.64,12.64l-0.681,14.741l-4.44,17.761l-15.541,15.541l-19.981,19.981
		l-5.92,8.14l-1.48,4.44l8.14,22.201l8.14,16.281l11.1,20.721l8.14,16.281l14.061,19.241l11.1,16.281l4.44,16.281l0.74,10.36
		l-0.74,14.801l-5.18,14.061l-5.92,9.62l-5.18,9.62l-3.7,14.801l-4.44,17.761l-5.18,18.501l-8.14,19.241l-7.4,16.281l-17.021,19.981
		l-22.201,25.161l-36.261,18.501l-10.36,5.92l4.44-28.121l3.7-24.421l13.32-1.48l24.421-7.4l7.4-10.36v-17.761l2.22-14.801
		l8.14-17.761l9.62-17.021l5.92-22.201l3.7-16.281v-12.581l-8.14-14.061l-5.92-15.541l-10.36-8.14l-12.581-11.84l-11.84-8.88
		l-8.14-11.84l-10.36-10.36l-14.061-12.581l-15.541-14.801l-14.061-11.84l-5.18,20.721l-9.62,28.861l-4.44,17.021l-9.62,29.601
		l-5.18,23.681l-1.48,16.281l-8.14,19.981l-5.18,14.801l-6.66,16.281l-4.44,8.14l-5.18,17.021l-4.44,18.501l-2.96,15.541
		l2.96,17.761l4.44,11.841l5.18,4.44l6.66,9.62l5.18,8.14l-25.901-0.74c0,0-29.601-3.7-29.601-5.18c0-1.48-7.4-9.62-7.4-12.581
		c0-2.96-0.74-17.761-0.74-17.761l2.22-22.201l6.66-21.461l6.66-21.461l2.22-10.36l3.7-8.14v-14.061l-1.48-17.021v-20.721
		l5.18-17.021l2.22-34.781l5.18-34.041l1.48-35.521l3.7-25.161l-1.48-11.1l-13.321,7.4l-28.121,14.061l-24.421,5.18l-31.081,2.96
		h-20.721l-22.941,1.48l-11.1-0.74h-11.84l-11.1-1.48l-31.081-6.66l-17.761-10.36l-19.241-7.4l-9.62-6.66L254.051,524.208z"/>
	<path style="fill:#CDCCCC;" d="M130.466,570.83l54.762-47.362c0,0,11.84-27.381,13.321-27.381s55.502,27.381,55.502,27.381
		l-29.054,42.855l-9.428,14.867l-14.801,31.081l-20.721,25.161l-21.949,46.252l-11.352,29.231v71.783l5.92,25.161v8.88l5.92,14.801
		h-39.962v-65.123l-7.4-34.041l-8.607-74.003l-1.754-11.633v-11.308l29.601-65.863l0,0V570.83"/>
	
		<linearGradient id="SVGID_1_" gradientUnits="userSpaceOnUse" x1="645.2263" y1="446.5798" x2="715.3514" y2="334.2064" gradientTransform="matrix(1 0 0 -1 0 1002)">
		<stop  offset="0" style="stop-color:#CDCCCC"/>
		<stop  offset="0.05" style="stop-color:#D2D2D2"/>
		<stop  offset="0.2" style="stop-color:#DDDDDD"/>
		<stop  offset="0.41" style="stop-color:#E4E4E3"/>
		<stop  offset="1" style="stop-color:#E7E6E6"/>
	</linearGradient>
	<polyline style="fill:url(#SVGID_1_);" points="684.008,524.948 650.706,541.229 610.745,547.149 591.504,547.149 591.504,561.95 
		618.885,588.591 643.306,611.531 651.446,623.372 686.228,652.233 722.844,611.161 691.408,550.849 684.008,524.948 	"/>
</g>
<g id="sorte_striber">
	<polygon style="fill:#343434;" points="81.624,268.898 91.244,257.798 124.545,257.798 177.828,297.759 197.808,331.06 
		184.488,344.381 164.507,317.74 144.526,304.419 117.885,284.439 97.904,277.778 84.584,277.778 	"/>
	<polygon style="fill:#343434;" points="211.129,324.4 224.449,317.74 224.449,304.419 217.789,291.099 211.129,277.778 
		204.469,271.118 204.469,264.458 197.808,264.458 177.828,251.137 164.507,244.477 157.847,237.817 144.526,237.817 
		131.206,237.817 117.885,244.477 106.785,245.217 97.904,251.137 117.885,251.137 131.206,244.477 137.866,244.477 
		144.526,251.137 151.186,251.137 164.507,257.798 171.167,264.458 177.828,271.118 184.488,271.118 191.148,277.778 
		197.808,284.439 197.808,291.099 204.469,291.099 204.469,297.759 211.129,311.08 	"/>
	<polygon style="fill:#343434;" points="244.43,304.419 257.751,297.759 271.071,297.759 264.411,284.439 257.751,271.118 
		251.09,264.458 237.77,251.137 237.77,244.477 231.11,237.817 217.789,231.156 204.469,224.496 197.808,217.836 184.488,217.836 
		171.167,217.836 164.507,217.836 151.186,224.496 131.206,231.156 157.847,231.156 177.828,231.156 197.808,244.477 
		217.789,257.798 231.11,277.778 237.77,291.099 	"/>
	<polygon style="fill:#343434;" points="204.469,211.176 237.77,224.496 251.09,224.496 264.411,231.156 277.731,244.477 
		291.052,251.137 304.373,264.458 311.033,284.439 317.693,297.759 350.994,297.759 344.334,277.778 337.674,264.458 
		331.014,257.798 324.353,251.137 317.693,244.477 304.373,237.817 297.712,231.156 304.373,224.496 291.052,217.836 
		277.731,217.836 271.071,217.836 244.43,211.176 	"/>
	<polygon style="fill:#343434;" points="184.488,344.381 197.808,377.682 211.129,404.323 224.449,417.644 231.11,437.625 
		237.77,444.285 244.43,457.605 251.09,470.926 251.09,490.907 257.751,510.888 264.411,524.208 271.071,530.868 277.731,537.529 
		271.071,524.208 271.071,510.888 264.411,490.907 264.411,477.586 257.751,457.605 257.751,444.285 251.09,430.964 244.43,417.644 
		244.43,410.984 237.77,404.323 231.11,391.003 224.449,384.343 217.789,371.022 211.129,364.362 204.469,351.041 204.469,337.721 
		197.808,331.06 	"/>
	<polyline style="fill:#343434;" points="211.129,324.4 224.449,351.041 237.77,371.022 244.43,384.343 251.09,391.003 
		257.751,397.663 264.411,417.644 271.071,437.625 277.731,457.605 277.731,470.926 277.731,484.246 277.731,497.567 
		284.392,517.548 284.392,530.868 291.052,537.529 297.712,544.189 297.712,530.868 291.052,524.208 291.052,510.888 
		291.052,497.567 284.392,484.246 284.392,470.926 284.392,464.266 284.392,450.945 277.731,437.625 277.731,424.304 
		271.071,410.984 271.071,404.323 264.411,397.663 264.411,384.343 257.751,377.682 257.751,371.022 244.43,357.701 237.77,344.381 
		231.11,331.06 224.449,317.74 211.129,324.4 	"/>
	<polyline style="fill:#343434;" points="244.43,304.419 257.751,337.721 264.411,364.362 271.071,377.682 277.731,391.003 
		277.731,397.663 284.392,410.984 284.392,424.304 291.052,437.625 291.052,457.605 297.712,477.586 297.712,497.567 
		304.373,524.208 311.033,537.529 317.693,550.849 324.353,550.849 317.693,544.189 317.693,530.868 311.033,504.227 
		317.693,490.907 317.693,470.926 317.693,457.605 311.033,444.285 311.033,430.964 311.033,417.644 304.373,397.663 
		304.373,384.343 297.712,371.022 297.712,357.701 291.052,344.381 291.052,337.721 284.392,324.4 277.731,311.08 271.071,304.419 
		271.071,297.759 257.751,297.759 244.43,304.419 	"/>
	<polyline style="fill:#343434;" points="291.052,297.759 297.712,311.08 304.373,331.06 317.693,357.701 324.353,351.041 
		317.693,331.06 311.033,311.08 304.373,297.759 291.052,297.759 	"/>
	<polygon style="fill:#343434;" points="317.693,297.759 331.014,331.06 331.014,351.041 331.014,357.701 324.353,364.362 
		324.353,371.022 317.693,384.343 324.353,404.323 324.353,417.644 331.014,417.644 337.674,404.323 331.014,391.003 
		337.674,377.682 344.334,364.362 344.334,357.701 350.994,357.701 350.994,364.362 350.994,384.343 344.334,410.984 
		337.674,424.304 344.334,437.625 344.334,457.605 344.334,470.926 350.994,490.907 350.994,517.548 350.994,544.189 
		357.655,550.849 364.315,557.509 370.975,557.509 364.315,550.849 357.655,537.529 364.315,524.208 364.315,497.567 
		364.315,477.586 357.655,470.926 364.315,464.266 364.315,450.945 364.315,437.625 370.975,417.644 370.975,404.323 
		377.635,384.343 377.635,371.022 384.296,351.041 397.616,324.4 417.597,291.099 424.257,277.778 430.918,271.118 437.578,264.458 
		444.238,257.798 457.559,251.137 464.219,244.477 470.879,237.817 450.898,237.817 444.238,244.477 444.238,251.137 
		437.578,251.137 430.918,244.477 430.918,237.817 417.597,237.817 404.276,237.817 397.616,244.477 404.276,244.477 
		410.937,251.137 424.257,251.137 424.257,257.798 417.597,271.118 410.937,284.439 397.616,291.099 397.616,277.778 
		404.276,264.458 404.276,257.798 397.616,251.137 384.296,244.477 390.956,237.817 390.956,231.896 370.975,231.156 
		364.315,237.817 357.655,231.156 344.334,224.496 317.693,224.496 311.033,231.156 331.014,237.817 344.334,244.477 
		357.655,244.477 370.975,257.798 370.975,264.458 377.635,271.118 377.635,277.778 377.635,284.439 384.296,291.099 
		384.296,297.759 384.296,304.419 384.296,311.08 384.296,317.74 377.635,324.4 377.635,331.06 370.975,337.721 370.975,344.381 
		370.975,351.041 364.315,357.701 357.655,357.701 357.655,351.041 357.655,331.06 350.994,317.74 350.994,311.08 350.994,304.419 
		350.994,297.759 	"/>
	<path style="fill:#343434;" d="M364.315,311.08"/>
	<polygon style="fill:#343434;" points="364.315,317.74 364.315,324.4 370.975,324.4 377.635,311.08 377.635,304.419 
		370.975,291.099 370.975,284.439 364.315,271.118 364.315,264.458 357.655,257.798 350.994,251.137 337.674,244.477 
		324.353,244.477 344.334,257.798 350.994,264.458 357.655,277.778 364.315,284.439 364.315,291.099 370.975,304.419 
		370.975,311.08 	"/>
	<polygon style="fill:#343434;" points="444.238,264.458 457.559,257.798 450.898,264.458 444.238,277.778 437.578,284.439 
		430.918,297.759 424.257,311.08 417.597,324.4 417.597,331.06 410.937,337.721 410.937,344.381 410.937,351.041 404.276,357.701 
		404.276,364.362 397.616,371.022 390.956,371.022 390.956,364.362 397.616,357.701 404.276,337.721 404.276,331.06 410.937,324.4 
		410.937,317.74 417.597,304.419 424.257,297.759 430.918,284.439 437.578,277.778 	"/>
	<polygon style="fill:#343434;" points="484.2,237.077 504.92,234.857 490.86,251.137 477.539,264.458 470.879,277.778 
		464.219,284.439 464.219,291.099 464.219,297.759 457.559,304.419 457.559,311.08 450.898,317.74 450.898,324.4 444.238,337.721 
		444.238,344.381 437.578,351.041 437.578,357.701 437.578,364.362 430.918,377.682 430.918,384.343 424.257,397.663 
		417.597,410.984 417.597,417.644 417.597,424.304 417.597,430.964 417.597,437.625 410.937,457.605 410.937,464.266 
		410.937,470.926 404.276,490.907 404.276,497.567 404.276,510.888 404.276,524.208 397.616,530.868 404.276,544.189 
		417.597,550.849 437.578,550.849 444.238,557.509 417.597,557.509 404.276,550.849 390.956,544.189 390.956,537.529 
		384.296,530.868 384.296,510.888 390.956,497.567 384.296,484.246 390.956,457.605 390.956,437.625 397.616,417.644 
		397.616,404.323 404.276,391.003 410.937,371.022 417.597,357.701 417.597,351.041 424.257,337.721 424.257,331.06 430.918,317.74 
		430.918,311.08 437.578,297.759 444.238,284.439 450.898,271.118 457.559,264.458 470.879,251.137 477.539,244.477 	"/>
	<polygon style="fill:#343434;" points="524.161,231.896 541.922,228.196 544.142,231.156 537.482,244.477 524.161,257.798 
		517.501,271.118 510.841,291.099 510.841,297.759 504.18,304.419 504.18,317.74 497.52,331.06 497.52,337.721 490.86,351.041 
		490.86,357.701 490.86,364.362 484.2,377.682 484.2,384.343 477.539,391.003 477.539,404.323 470.879,424.304 464.219,430.964 
		464.219,444.285 457.559,457.605 450.898,477.586 450.898,484.246 444.238,504.227 444.238,517.548 450.898,524.208 
		457.559,530.868 470.879,537.529 484.2,544.189 470.879,544.189 450.898,537.529 437.578,530.868 430.918,524.208 430.918,510.888 
		430.918,504.227 437.578,484.246 437.578,470.926 437.578,464.266 444.238,457.605 437.578,450.945 444.238,444.285 
		444.238,430.964 444.238,417.644 450.898,410.984 450.898,397.663 457.559,384.343 464.219,371.022 464.219,364.362 
		470.879,351.041 470.879,344.381 477.539,331.06 477.539,324.4 484.2,311.08 484.2,304.419 490.86,284.439 497.52,271.118 
		504.18,257.798 510.841,251.137 517.501,244.477 	"/>
	<polyline style="fill:#343434;" points="564.123,225.236 577.443,224.496 570.783,237.817 570.783,244.477 564.123,244.477 
		564.123,251.137 557.463,264.458 550.802,277.778 550.802,291.099 544.142,304.419 544.142,317.74 537.482,331.06 537.482,344.381 
		530.821,357.701 530.821,364.362 524.161,377.682 524.161,384.343 517.501,397.663 510.841,410.984 504.18,424.304 497.52,437.625 
		497.52,450.945 497.52,457.605 490.86,470.926 484.2,484.246 484.2,490.907 484.2,497.567 484.2,504.227 490.86,510.888 
		497.52,517.548 504.18,524.208 510.841,530.868 504.18,530.868 490.86,524.208 484.2,517.548 477.539,510.888 477.539,504.227 
		477.539,490.907 477.539,477.586 484.2,470.926 484.2,464.266 484.2,450.945 490.86,444.285 490.86,430.964 497.52,417.644 
		497.52,410.984 504.18,397.663 504.18,391.003 510.841,371.022 510.841,364.362 517.501,351.041 517.501,344.381 524.161,331.06 
		524.161,324.4 524.161,317.74 530.821,304.419 530.821,297.759 530.821,284.439 537.482,271.118 544.142,257.798 550.802,244.477 
		557.463,231.156 564.123,225.236 	"/>
	<polygon style="fill:#343434;" points="504.18,251.137 510.841,244.477 497.52,251.137 484.2,264.458 484.2,271.118 
		477.539,277.778 470.879,291.099 470.879,304.419 464.219,311.08 464.219,324.4 457.559,331.06 450.898,351.041 444.238,364.362 
		444.238,377.682 444.238,384.343 450.898,377.682 450.898,371.022 457.559,357.701 457.559,344.381 464.219,337.721 470.879,324.4 
		470.879,317.74 477.539,304.419 477.539,297.759 477.539,291.099 484.2,277.778 490.86,271.118 490.86,264.458 497.52,257.798 	"/>
	<polygon style="fill:#343434;" points="598.904,228.936 604.824,230.416 604.084,244.477 597.424,257.798 590.764,264.458 
		590.764,271.118 584.104,291.099 584.104,304.419 577.443,317.74 570.783,337.721 564.123,357.701 564.123,371.022 
		564.123,384.343 557.463,391.003 557.463,404.323 557.463,417.644 564.123,430.964 570.783,457.605 577.443,470.926 
		584.104,477.586 590.764,490.907 597.424,504.227 590.764,497.567 577.443,484.246 570.783,470.926 557.463,450.945 
		557.463,437.625 550.802,430.964 550.802,410.984 550.802,397.663 550.802,391.003 557.463,377.682 550.802,371.022 
		544.142,384.343 544.142,397.663 537.482,410.984 530.821,424.304 517.501,444.285 504.18,457.605 497.52,470.926 504.18,444.285 
		510.841,430.964 524.161,410.984 530.821,404.323 537.482,391.003 537.482,384.343 544.142,371.022 550.802,357.701 
		550.802,351.041 557.463,331.06 564.123,317.74 564.123,304.419 570.783,284.439 570.783,277.778 577.443,264.458 577.443,257.798 
		584.104,244.477 590.764,237.817 	"/>
	<polygon style="fill:#343434;" points="337.674,484.246 331.014,477.586 324.353,490.907 331.014,517.548 331.014,530.868 
		331.014,544.189 344.334,557.509 344.334,550.849 337.674,544.189 337.674,530.868 337.674,510.888 	"/>
	<polygon style="fill:#343434;" points="191.148,397.663 197.808,404.323 197.808,391.003 191.148,384.343 184.488,364.362 
		177.828,351.041 171.167,344.381 157.847,344.381 157.847,337.721 144.526,331.06 131.206,324.4 117.885,311.08 111.225,304.419 
		91.244,304.419 66.083,291.839 58.683,305.159 71.263,311.08 71.263,317.74 77.924,317.74 84.584,324.4 97.904,324.4 
		111.225,324.4 117.885,331.06 131.206,337.721 144.526,351.041 157.847,357.701 171.167,364.362 177.828,371.022 	"/>
	<polygon style="fill:#343434;" points="629.245,237.817 642.566,242.257 637.386,251.137 630.725,264.458 624.065,277.778 
		624.065,284.439 617.405,297.759 617.405,311.08 617.405,324.4 610.745,344.381 610.745,357.701 610.745,377.682 610.745,404.323 
		617.405,410.984 617.405,417.644 617.405,424.304 624.065,437.625 624.065,450.945 630.725,457.605 637.386,470.926 
		644.046,484.246 644.046,497.567 650.706,504.227 650.706,510.888 657.366,517.548 664.027,524.208 670.687,524.208 
		677.347,524.208 684.008,517.548 684.008,524.208 670.687,530.868 657.366,537.529 650.706,530.868 644.046,517.548 
		637.386,510.888 630.725,497.567 624.065,490.907 624.065,484.246 617.405,477.586 617.405,470.926 610.745,464.266 
		610.745,457.605 604.084,444.285 604.084,430.964 597.424,424.304 597.424,410.984 597.424,404.323 597.424,397.663 
		590.764,391.003 597.424,364.362 597.424,357.701 597.424,351.041 604.084,324.4 604.084,317.74 597.424,317.74 597.424,324.4 
		597.424,331.06 590.764,344.381 584.104,371.022 584.104,377.682 584.104,384.343 584.104,391.003 584.104,397.663 
		584.104,404.323 590.764,430.964 590.764,444.285 597.424,457.605 604.084,477.586 610.745,484.246 610.745,490.907 
		610.745,497.567 617.405,504.227 624.065,517.548 624.065,524.208 624.065,530.868 630.725,544.189 624.065,544.189 
		617.405,537.529 617.405,530.868 610.745,517.548 604.084,510.888 604.084,504.227 604.084,497.567 597.424,484.246 
		590.764,470.926 584.104,464.266 584.104,457.605 577.443,444.285 570.783,417.644 570.783,404.323 570.783,391.003 
		570.783,377.682 577.443,357.701 584.104,337.721 590.764,317.74 597.424,297.759 604.084,277.778 610.745,257.798 
		624.065,244.477 	"/>
	<polygon style="fill:#343434;" points="46.842,345.861 50.913,324.03 64.233,337.351 77.554,344.011 90.874,350.671 
		110.855,357.331 130.836,363.992 150.816,378.052 164.137,378.052 177.458,391.373 191.518,417.274 204.839,437.995 
		218.159,457.975 224.819,470.556 231.48,484.616 231.48,504.597 224.819,491.277 218.159,477.956 211.499,464.636 204.839,451.315 
		191.518,437.995 178.198,411.354 164.137,397.293 150.816,390.633 138.236,391.373 131.576,383.973 124.915,383.973 
		104.935,370.652 84.954,363.992 64.973,357.331 	"/>
	<polygon style="fill:#343434;" points="46.842,374.722 46.842,359.182 64.233,370.652 90.874,383.973 110.855,390.633 
		117.515,397.293 130.836,397.293 137.496,397.293 144.156,404.693 158.217,411.354 164.877,418.014 171.537,424.674 
		178.198,424.674 178.198,431.334 171.537,431.334 158.217,424.674 151.556,424.674 138.236,418.014 131.576,418.014 
		124.915,411.354 111.595,411.354 104.935,404.693 98.274,404.693 91.614,398.033 84.954,398.033 71.633,390.633 51.653,377.312 	
		"/>
	<polygon style="fill:#343434;" points="46.842,392.483 51.283,407.283 57.573,410.614 70.893,417.274 84.214,423.934 
		90.874,430.594 97.534,437.255 110.855,437.255 117.515,443.915 137.496,450.575 144.156,450.575 157.477,457.235 164.877,457.235 
		171.537,463.896 178.198,477.216 184.858,491.277 184.858,477.956 184.858,464.636 184.488,457.605 178.198,451.315 
		171.537,444.655 164.877,444.655 158.217,437.995 151.556,437.995 131.576,431.334 117.515,424.674 104.195,417.274 
		97.534,417.274 77.554,404.693 58.313,397.293 	"/>
	<polygon style="fill:#343434;" points="56.463,424.304 60.163,438.365 77.554,451.315 84.214,451.315 90.874,457.975 
		97.534,457.975 104.195,464.636 110.855,464.636 118.255,464.636 131.576,471.296 144.156,470.556 150.816,463.896 
		137.496,457.235 124.175,457.235 110.855,450.575 97.534,443.915 90.874,443.915 77.554,437.255 70.893,430.594 64.233,430.594 	
		"/>
	<polygon style="fill:#343434;" points="62.383,450.205 78.294,464.636 91.614,471.296 104.935,477.956 118.255,477.956 
		131.576,477.956 144.896,477.956 157.477,484.616 164.137,497.937 170.797,517.918 157.477,511.258 157.477,504.597 
		157.477,497.937 150.816,491.277 144.156,484.616 137.496,491.277 130.836,491.277 117.515,491.277 104.195,491.277 
		90.874,484.616 78.294,477.956 71.633,477.956 63.123,464.266 	"/>
	<polygon style="fill:#343434;" points="64.973,484.616 84.954,504.597 91.614,511.258 98.274,511.258 104.935,511.258 
		118.255,517.918 124.915,517.918 131.576,524.578 138.236,531.238 144.896,531.238 151.556,531.238 151.556,524.578 
		144.896,524.578 138.236,517.918 131.576,511.258 124.915,511.258 111.595,504.597 104.935,504.597 91.614,497.937 84.954,497.937 
		78.294,491.277 71.633,484.616 	"/>
	<polygon style="fill:#343434;" points="64.973,503.857 64.973,510.518 78.294,523.838 91.614,530.498 98.274,530.498 
		111.595,537.159 118.255,537.159 131.576,543.819 138.236,543.819 144.896,543.819 151.556,543.819 144.896,537.159 
		131.576,537.159 118.255,530.498 104.935,523.838 91.614,517.178 84.954,517.178 78.294,510.518 	"/>
	<polygon style="fill:#343434;" points="64.233,544.559 57.573,551.219 70.893,557.879 77.554,557.879 90.874,564.54 97.534,564.54 
		104.195,564.54 117.515,571.2 124.175,571.2 130.836,571.2 124.175,564.54 117.515,564.54 110.855,557.879 104.195,557.879 
		97.534,557.879 84.214,551.219 77.554,551.219 	"/>
	<polygon style="fill:#343434;" points="49.802,562.69 44.252,577.86 58.313,584.52 64.973,584.52 70.893,591.181 78.294,591.181 
		84.954,591.181 91.614,591.181 98.274,597.841 104.195,591.181 111.595,591.181 98.274,584.52 91.614,584.52 84.954,584.52 
		78.294,584.52 70.893,577.86 64.973,571.2 58.313,571.2 	"/>
	<polygon style="fill:#343434;" points="37.962,584.15 31.302,591.551 37.592,597.101 44.252,603.761 50.913,603.761 
		57.573,610.421 64.233,610.421 70.893,617.082 77.554,617.082 84.214,617.082 90.874,617.082 97.534,610.421 90.874,610.421 
		77.554,610.421 70.893,610.421 57.573,597.101 50.913,590.441 44.252,590.441 	"/>
	<polygon style="fill:#343434;" points="24.271,604.501 24.271,611.161 30.932,617.822 44.252,617.822 50.913,624.482 
		37.592,624.482 30.932,624.482 17.611,624.482 17.611,631.142 37.592,631.142 44.252,631.142 50.913,631.142 57.573,637.803 
		64.233,637.803 70.893,637.803 64.233,631.142 57.573,624.482 57.573,617.822 50.913,617.822 50.913,611.161 44.252,611.161 
		37.592,611.161 30.932,611.161 	"/>
	<polygon style="fill:#343434;" points="17.611,637.062 17.611,643.723 30.932,643.723 37.592,643.723 44.252,643.723 
		50.913,650.383 57.573,657.043 64.233,650.383 57.573,643.723 44.252,637.062 30.932,637.062 	"/>
	<polygon style="fill:#343434;" points="51.653,670.364 58.313,670.364 58.313,663.704 38.332,650.383 18.351,657.043 
		25.011,663.704 38.332,657.043 	"/>
	<polygon style="fill:#343434;" points="20.941,670.734 22.421,678.134 38.332,677.024 51.653,690.345 58.313,690.345 
		51.653,677.024 38.332,670.364 	"/>
	<polygon style="fill:#343434;" points="23.901,684.794 25.011,690.345 38.332,697.005 51.653,716.986 57.943,718.096 
		58.313,710.325 44.992,697.005 44.992,690.345 	"/>
	<polyline style="fill:#343434;" points="657.366,242.997 677.347,241.517 670.317,264.088 663.657,284.069 663.657,297.389 
		656.996,317.37 656.996,344.011 656.996,370.652 656.996,390.633 656.996,403.953 663.657,423.934 670.317,443.915 
		670.317,457.235 676.977,470.556 676.977,477.216 683.638,491.277 683.638,504.597 690.298,504.597 696.958,504.597 
		696.958,491.277 703.618,484.616 716.939,477.216 723.599,471.296 730.259,464.636 723.599,484.616 710.279,497.937 
		696.958,511.258 690.298,517.918 677.717,511.258 677.717,503.857 657.736,491.277 656.996,477.956 643.676,451.315 
		637.016,437.995 630.355,418.014 630.355,397.293 630.355,371.392 630.355,344.751 630.355,324.77 637.016,304.789 
		643.676,284.809 644.416,264.828 650.336,258.168 650.336,251.507 656.626,246.697 657.366,245.217 	"/>
	<polyline style="fill:#343434;" points="703.988,237.817 717.679,238.187 711.019,251.507 711.019,284.809 711.019,311.45 
		711.019,324.77 711.019,350.671 711.019,377.312 717.679,390.633 723.599,410.614 730.259,430.594 736.92,443.915 723.599,457.235 
		716.939,450.575 710.279,443.915 703.618,437.255 703.618,430.594 703.618,417.274 696.958,403.953 690.298,390.633 
		690.298,377.312 690.298,363.992 690.298,350.671 683.638,357.331 683.638,377.312 683.638,397.293 690.298,410.614 
		690.298,423.934 696.958,423.934 696.958,437.255 703.618,450.575 703.618,457.235 710.279,463.896 703.618,470.556 
		696.958,470.556 690.298,463.896 691.038,451.315 684.378,444.655 676.977,417.274 670.317,411.354 670.317,398.033 
		670.317,384.713 670.317,364.732 670.317,344.751 676.977,331.43 677.717,311.45 684.378,290.729 691.038,258.168 703.988,237.817 
			"/>
	<polygon style="fill:#343434;" points="736.92,231.526 756.9,231.526 750.24,258.168 750.24,284.809 750.24,298.129 750.24,318.11 
		756.9,344.011 756.9,370.652 756.9,383.973 763.561,397.293 770.221,404.693 770.221,418.014 756.9,424.674 743.58,418.014 
		736.92,404.693 730.259,391.373 723.599,371.392 723.599,351.411 723.599,324.77 723.599,290.729 730.259,270.748 730.259,244.107 
			"/>
	<polygon style="fill:#343434;" points="770.221,224.866 783.541,224.866 783.541,231.526 776.881,251.507 776.881,271.488 
		776.881,284.809 783.541,311.45 783.541,324.77 783.541,338.091 783.541,358.071 783.541,371.392 783.541,384.713 776.881,398.033 
		770.221,384.713 770.221,371.392 770.221,351.411 770.221,338.091 763.561,324.77 763.561,311.45 756.9,298.129 756.9,278.148 
		763.561,258.168 763.561,244.107 	"/>
	<polyline style="fill:#343434;" points="797.232,217.836 810.923,217.466 804.262,230.786 797.602,250.767 797.602,270.748 
		797.602,284.069 796.862,298.129 803.522,318.11 810.182,290.729 810.182,270.748 803.522,257.428 810.182,237.447 
		816.843,224.126 830.903,210.806 837.564,210.806 830.903,224.126 824.243,244.107 824.243,264.088 816.843,284.069 
		816.843,304.049 810.182,330.69 810.182,351.411 810.182,370.652 810.182,383.973 796.862,398.033 790.202,384.713 
		796.862,358.071 796.862,338.091 790.942,317.37 790.202,304.049 783.541,290.729 783.541,270.748 790.202,244.107 
		797.602,224.126 797.232,217.836 	"/>
	<polygon style="fill:#343434;" points="850.144,210.806 856.804,210.806 843.484,230.786 843.484,250.767 843.484,270.748 
		837.564,284.069 830.903,297.389 823.503,310.71 823.503,324.03 816.843,330.69 816.843,324.03 816.843,310.71 830.163,284.069 
		830.163,257.428 836.824,230.786 837.564,218.206 	"/>
	<polygon style="fill:#343434;" points="868.645,207.106 878.265,207.106 868.645,221.906 861.985,241.147 860.505,258.908 
		854.584,278.888 844.224,296.649 832.383,321.07 822.023,338.831 817.583,346.971 815.363,342.531 825.723,326.25 830.163,314.41 
		834.603,304.049 841.264,289.989 845.704,280.368 848.664,264.828 848.664,249.287 856.804,227.086 863.465,212.286 	"/>
	<polygon style="fill:#343434;" points="833.863,327.73 841.264,314.41 848.664,303.309 854.584,289.989 861.245,280.368 
		868.645,268.528 872.345,262.608 870.125,250.027 872.345,244.107 872.345,233.747 867.905,245.587 866.425,255.207 
		864.205,266.308 859.764,272.968 850.144,292.949 837.564,312.745 	"/>
	<polygon style="fill:#343434;" points="897.506,249.287 879.005,261.128 868.645,272.968 861.985,284.069 849.404,305.529 
		847.184,315.89 839.784,324.77 827.203,339.571 817.583,358.812 815.363,367.692 816.843,372.132 824.983,367.692 833.863,358.812 
		827.203,361.032 819.803,363.992 824.243,356.591 836.824,346.971 844.964,330.69 850.144,321.81 853.104,311.45 856.804,301.089 
		861.245,294.429 864.945,283.329 872.345,272.968 878.265,265.568 887.886,257.428 	"/>
	<polygon style="fill:#343434;" points="910.086,234.487 918.967,233.747 914.527,242.627 914.527,249.287 908.606,255.207 
		900.466,259.648 890.106,265.568 884.925,274.448 881.965,281.848 881.965,290.729 883.445,298.129 881.965,311.45 881.965,317.37 
		881.965,324.77 878.265,332.91 870.125,343.271 856.804,361.032 848.664,375.832 842.744,388.413 837.564,400.253 836.824,406.913 
		828.683,398.033 831.643,389.153 837.564,380.272 844.964,369.172 850.884,358.812 856.804,350.671 864.945,338.091 
		873.825,323.29 876.785,317.37 876.045,311.45 875.305,290.729 876.045,281.108 881.225,269.268 889.366,261.868 899.726,254.467 
		904.906,250.767 908.606,244.847 910.826,239.667 	"/>
	<polygon style="fill:#343434;" points="875.305,276.668 869.385,282.589 864.945,291.469 861.245,301.829 856.804,315.15 
		856.804,324.77 853.104,332.17 848.664,340.311 842.744,346.971 837.564,353.631 836.824,361.772 830.163,369.912 820.543,381.752 
		824.243,391.373 831.643,379.532 840.524,363.992 847.184,353.631 855.324,342.531 860.505,333.651 863.465,327.73 863.465,320.33 
		867.165,305.529 869.385,295.169 871.605,284.069 	"/>
	<polygon style="fill:#343434;" points="900.466,261.868 893.066,267.788 887.146,285.549 887.146,298.129 887.146,309.23 
		889.366,317.37 888.626,327.73 894.546,337.351 901.946,342.531 907.866,344.011 901.206,338.091 894.546,331.43 894.546,324.03 
		893.066,315.15 891.586,305.529 890.846,295.909 891.586,284.069 896.026,281.108 897.506,275.928 900.466,266.308 	"/>
	<polygon style="fill:#343434;" points="923.407,236.707 918.967,249.287 912.307,257.428 907.866,265.568 904.906,274.448 
		902.686,282.589 898.246,286.289 896.026,294.429 898.986,304.049 901.206,308.49 904.166,308.49 903.426,302.569 902.686,295.169 
		907.866,287.029 909.346,274.448 913.787,268.528 918.967,257.428 921.927,249.287 	"/>
	<polygon style="fill:#343434;" points="929.327,244.847 926.367,257.428 921.927,267.788 916.747,272.228 913.787,281.108 
		912.307,289.989 909.346,299.609 909.346,308.49 912.307,299.609 916.747,287.769 922.667,281.108 927.107,275.188 
		933.767,266.308 940.428,257.428 	"/>
	<polygon style="fill:#343434;" points="923.407,289.989 923.407,297.389 920.447,305.529 916.747,314.41 915.267,312.93 
		915.267,307.009 916.747,298.129 	"/>
	<polygon style="fill:#343434;" points="916.747,345.491 921.187,348.451 921.187,355.111 916.747,353.631 915.267,348.451 
		913.787,345.491 	"/>
	<path style="fill:#343434;" d="M940.428,263.348l-7.4,11.84l-5.92,8.14v10.36l-2.22,11.84l-1.48,8.88v5.92l1.48,7.4l2.96-10.36
		l3.7-5.92l5.18-9.62c0,0,3.7-3.7,3.7-4.44c0-0.74,1.48-9.62,1.48-9.62v-8.88L940.428,263.348z"/>
	<polygon style="fill:#343434;" points="943.388,299.609 935.987,319.59 930.807,332.17 938.948,345.491 944.128,360.292 
		948.568,373.612 953.748,386.933 956.708,399.513 961.148,417.274 961.148,423.194 961.888,413.574 960.408,406.173 
		956.708,394.333 953.748,382.492 950.048,373.612 947.088,361.032 944.868,350.671 942.648,341.791 939.688,334.391 
		937.468,329.95 940.428,324.03 941.908,318.85 943.388,312.19 	"/>
	<polygon style="fill:#343434;" points="946.348,301.089 945.608,313.67 945.608,324.77 945.608,334.391 948.568,344.011 
		949.308,350.671 951.528,361.032 955.228,374.352 956.708,383.232 959.668,395.813 964.109,410.614 965.589,420.974 
		967.809,420.974 965.589,413.574 964.109,403.953 961.888,394.333 960.408,382.492 956.708,372.132 956.708,359.552 
		954.488,350.671 953.748,339.571 953.748,325.51 950.048,310.71 	"/>
	<polygon style="fill:#343434;" points="932.287,343.271 938.948,356.591 943.388,367.692 946.348,377.312 950.048,386.193 
		953.748,396.553 955.228,406.913 956.708,420.974 953.748,414.314 953.008,406.173 950.048,396.553 946.348,386.193 
		941.908,374.352 938.208,363.992 933.767,355.111 930.807,350.671 	"/>
	<polygon style="fill:#343434;" points="926.367,341.051 926.367,353.631 932.287,362.512 935.987,369.172 941.908,381.752 
		945.608,389.153 950.048,402.473 951.528,412.834 949.308,417.274 948.568,406.913 946.348,398.033 941.908,389.893 
		935.987,381.012 930.807,372.132 926.367,363.252 924.887,358.071 923.407,346.971 	"/>
	<polygon style="fill:#343434;" points="946.348,414.314 945.608,403.953 941.908,394.333 934.507,381.752 927.107,372.132 
		917.487,361.032 913.787,355.111 909.346,350.671 903.426,350.671 896.026,346.971 890.846,344.011 887.146,341.051 
		881.225,342.531 870.125,353.631 858.284,372.132 852.364,386.933 844.964,398.033 841.264,409.874 853.104,420.974 
		854.584,408.393 856.804,392.956 861.985,381.752 869.385,370.652 875.305,361.032 881.965,356.591 891.586,362.512 
		901.206,367.692 912.307,375.832 921.187,378.792 928.587,386.193 935.247,393.593 940.428,403.213 	"/>
	<path style="fill:#343434;" d="M940.428,416.534c-1.48-2.22-5.92-8.14-5.92-8.14l-9.62-5.92l-7.4-2.96l-8.14-3.7l-5.92-1.48
		l-7.4-4.44l-6.66-2.22l-8.88,3.7l-6.66,9.62l-3.7,13.321l-4.44,11.1l-0.74,5.18l-8.14-7.4l2.96-11.1l2.96-7.4l2.96-8.14l3.7-9.62
		l2.96-8.14l5.92-4.44l8.88-0.74l8.88,1.48l6.66,3.7l1.48,2.96h6.66l8.14,2.96l8.14,6.66l3.7,4.44l6.66,5.92l5.92,11.84v5.92
		L940.428,416.534z"/>
	<path style="fill:#343434;" d="M938.948,425.414l-4.44-5.92l-3.7-3.7l-7.4-3.7l-9.62-3.7l-8.88-3.7l-7.4-2.96h-3.7l-8.88,2.22
		l-6.66,4.44l-0.74,8.88l-2.22,1.48c0,0-3.7,5.92-3.7,6.66c0,0.74-2.22,6.66-2.22,6.66v4.44l5.92,8.14l1.48-10.36
		c0,0,1.48-4.44,1.48-5.92c0-1.48,2.22-9.62,2.22-9.62l6.66-6.66h4.44l11.1,5.18l5.18,3.7l5.18,2.22h4.44l7.4,2.22l5.92,3.7
		l4.44,8.14l5.18,1.48L938.948,425.414z"/>
	<path style="fill:#343434;" d="M933.027,441.695l-9.62-3.7l-5.92-3.7l-8.14-3.7l-4.44-2.22l-10.36-3.7h-7.4l-5.18,5.92v9.62
		l-3.7,5.18v4.44l6.66,5.92v-10.36l2.22-5.92c0,0,1.48-6.66,3.7-6.66s8.14,5.18,8.14,5.18s2.22,5.18,2.96,5.18
		c0.74,0,13.321,2.22,13.321,2.22l7.4,3.7l5.92,0.74l4.44,0.74V441.695z"/>
	<polygon style="fill:#343434;" points="905.646,455.755 899.726,446.875 893.806,444.655 888.626,448.355 887.146,457.235 
		887.146,462.416 891.586,463.896 891.586,457.975 893.806,451.315 897.506,452.795 901.946,457.235 	"/>
	<path style="fill:#343434;" d="M902.686,460.196l-5.92-2.22c0,0-2.96,2.22-2.96,2.96v5.92l4.44-2.96l5.92,2.96l1.48-2.96
		L902.686,460.196z"/>
	<polygon style="fill:#343434;" points="961.888,272.228 970.029,287.769 975.209,301.089 978.909,312.93 980.389,307.75 
		976.689,301.089 973.729,288.509 969.289,282.589 	"/>
	<path style="fill:#343434;" d="M961.148,275.188l8.88,23.681l5.18,14.061l1.48,8.88l-3.7-2.96l-2.22-8.14l-2.22-5.92l-4.44-8.88
		l4.44,27.381v15.541l0.74,16.281v17.021l2.96,12.58l0.74,14.801l1.48,12.581v7.4l-2.22,1.48l-0.74-5.92v-14.061l-2.22-9.62v-8.14
		l-2.96-7.4l1.48-14.801l-1.48-14.061l-0.74-14.061l-0.74-11.1l-2.96-9.62v41.442l1.48,4.44v14.061l0.74,6.66v2.22
		c0,0.74,2.22,7.4,2.22,7.4l0.74,6.66l0.74,6.66v8.88l-2.22-8.88l-0.74-7.4l-1.48-6.66l-2.22-5.92v-8.14l-1.48-6.66v-21.461
		l-0.74-9.62v-11.1l-1.85,2.96v13.321l0.37,14.061l-2.22-6.66V321.81l-0.74-5.92l-1.48-8.14l-1.48-5.92l-1.48-4.44l-0.74,2.22
		l-2.96-2.22v-5.18l-0.74-7.4l0.74-8.14l2.22-3.7l5.92-4.44l5.18,3.7L961.148,275.188z"/>
	<polygon style="fill:#343434;" points="970.029,319.59 971.509,326.25 971.509,334.391 971.509,348.451 972.989,349.931 
		974.469,339.571 975.949,329.95 973.729,322.55 	"/>
	<polygon style="fill:#343434;" points="541.552,424.674 543.772,429.114 546.732,432.814 541.552,439.475 539.332,446.135 
		541.552,453.535 545.992,460.196 554.132,470.556 561.533,480.176 567.453,489.057 574.113,497.937 581.513,505.337 
		588.174,514.958 597.054,521.618 594.834,524.578 588.914,520.878 580.773,514.958 570.413,509.037 563.013,503.857 
		552.652,500.157 542.292,494.237 533.412,486.097 530.451,482.396 520.831,479.436 512.691,476.476 515.651,471.296 
		526.011,475.736 534.152,480.176 542.292,486.097 550.432,494.237 559.313,497.937 565.973,499.417 562.273,491.277 
		556.352,487.577 549.692,480.176 543.772,472.036 539.332,463.156 536.372,457.235 531.932,457.235 521.571,460.196 
		514.171,468.336 511.211,471.296 506.771,477.216 502.33,483.876 496.41,488.317 501.59,475.736 507.511,466.856 514.171,459.456 
		518.611,454.275 524.531,451.315 528.231,447.615 531.932,441.695 534.892,432.074 	"/>
	<polygon style="fill:#343434;" points="506.03,507.557 517.871,503.857 527.491,507.557 537.852,514.218 548.212,516.438 
		554.872,520.878 564.493,526.058 571.153,534.198 576.333,540.859 580.773,540.859 575.593,531.978 567.453,522.358 
		556.352,514.218 549.692,509.037 540.072,503.857 530.451,498.677 519.351,497.197 511.211,495.717 504.55,502.377 	"/>
	<path style="fill:#343434;" d="M515.651,520.878h14.061l10.36,6.66l6.66,4.44l8.88,2.96l8.88,4.44l2.96,4.44l-8.14-0.74l-11.1-5.18
		l-7.4-2.96c0,0-4.44-3.7-8.14-2.96c-3.7,0.74-9.62,0-9.62,0l-5.92-3.7L515.651,520.878z"/>
	<polygon style="fill:#343434;" points="516.391,538.639 528.971,540.119 543.032,540.859 541.552,545.299 535.632,545.299 
		540.812,551.959 556.352,556.399 565.973,560.099 572.633,567.5 578.553,570.46 583.734,570.46 578.553,573.42 568.933,571.2 
		565.233,567.5 557.833,564.54 550.432,561.58 540.072,555.659 533.412,548.259 527.491,545.299 515.651,542.339 	"/>
	<polygon style="fill:#343434;" points="515.651,554.179 515.651,560.099 521.571,560.099 524.531,566.76 528.971,573.42 
		534.152,578.6 543.772,583.78 550.432,585.26 558.573,588.961 566.713,590.441 573.373,590.441 577.813,590.441 574.113,583.78 
		564.493,581.56 554.872,580.08 549.692,577.86 545.252,574.16 542.292,571.2 532.672,563.8 528.231,555.659 522.311,554.179 	"/>
	<polygon style="fill:#343434;" points="514.911,571.2 522.311,578.6 528.231,583.78 534.152,588.221 546.732,596.361 
		556.352,596.361 567.453,600.061 574.113,600.061 574.113,605.981 563.013,605.981 549.692,603.021 544.512,603.021 
		534.152,598.581 526.011,592.661 519.351,584.52 514.911,578.6 	"/>
	<polygon style="fill:#343434;" points="510.471,590.441 510.471,599.321 517.131,603.021 524.531,607.461 527.491,611.901 
		531.191,614.122 543.032,614.122 549.692,617.082 556.352,617.082 564.493,623.002 567.453,623.002 569.673,619.302 
		564.493,616.342 560.053,612.642 553.392,611.901 546.732,611.901 543.032,609.681 534.152,606.721 527.491,600.801 
		520.831,597.101 515.651,594.141 	"/>
	<polygon style="fill:#343434;" points="510.471,606.721 510.471,612.642 519.351,614.122 523.791,615.602 523.791,611.161 
		515.651,610.421 	"/>
	<path style="fill:#343434;" d="M508.251,617.822c0,0-0.74,5.92,0,5.92s11.1,2.22,11.1,2.22h8.14l5.18-0.74l7.4,3.7h9.62l5.18,4.44
		l6.66,5.18h2.96v-5.92l-5.92-5.18l-6.66-4.44h-8.88l-10.36-2.96l-7.4-2.22l-5.18,2.96l-6.66-2.22L508.251,617.822z"/>
	<polygon style="fill:#343434;" points="508.251,630.402 508.251,638.543 515.651,638.543 523.791,638.543 529.711,638.543 
		540.072,640.023 546.732,644.463 552.652,650.383 558.573,657.783 560.053,648.903 556.352,641.503 547.472,636.322 
		537.852,634.102 528.231,631.882 517.131,631.142 	"/>
	<path style="fill:#343434;" d="M505.29,643.723v6.66l9.62,1.48l8.88,5.18l5.713,2.708c0,0,3.907,3.952,4.647,3.952
		c0.74,0,10.36,5.18,10.36,5.18l10.36,1.48l-11.841-6.66l-6.66-3.7l-2.22-5.92l8.14,2.96l7.4,5.18l5.18,2.22l-1.48-1.48l-6.66-7.4
		l-6.66-2.96l-3.7-3.7h-10.36l-8.88-2.22l-6.66-0.74L505.29,643.723z"/>
	<polygon style="fill:#343434;" points="504.55,657.783 504.55,665.184 517.131,667.404 523.791,670.364 543.032,677.024 
		553.392,677.024 540.812,672.584 534.152,670.364 523.791,664.444 515.651,659.263 	"/>
	<polygon style="fill:#343434;" points="522.311,674.804 527.491,682.944 536.372,688.125 544.512,688.865 549.692,688.865 
		546.732,682.944 536.372,682.944 531.932,680.724 527.491,677.024 	"/>
	<polygon style="fill:#343434;" points="503.07,671.844 503.07,679.244 512.691,679.244 517.131,692.565 526.011,697.005 
		537.852,700.705 546.732,697.745 551.912,693.305 540.072,694.785 531.191,693.305 526.011,687.385 522.311,683.684 
		515.651,677.024 510.471,674.804 	"/>
	<polygon style="fill:#343434;" points="502.33,685.904 502.33,691.825 509.731,698.485 517.131,704.405 527.491,708.845 
		536.372,710.325 545.252,710.325 536.372,706.625 527.491,705.145 518.611,697.745 510.471,692.565 506.771,685.904 	"/>
	<polygon style="fill:#343434;" points="497.89,694.045 497.89,706.625 508.251,713.286 515.651,716.986 523.791,718.466 
		529.711,722.166 540.812,722.166 537.852,716.986 528.971,718.466 524.531,716.246 512.691,708.105 505.29,705.885 	"/>
	<polygon style="fill:#343434;" points="497.89,714.766 497.89,719.946 504.55,722.166 510.471,726.606 522.311,726.606 
		512.691,719.946 504.55,717.726 	"/>
	<polygon style="fill:#343434;" points="499.37,729.566 502.33,736.226 514.171,736.226 522.311,734.006 528.971,736.226 
		533.412,730.306 523.791,729.566 511.211,729.566 504.55,731.786 	"/>
	<polygon style="fill:#343434;" points="499.37,740.667 499.37,744.367 510.471,748.067 519.351,748.067 524.531,749.547 
		527.491,745.107 517.871,745.107 510.471,742.887 504.55,741.407 	"/>
	<polygon style="fill:#343434;" points="897.136,475.366 891.956,484.246 893.436,496.087 905.276,507.927 920.817,517.548 
		932.657,521.248 943.758,521.248 960.778,511.628 972.619,502.007 980.019,492.387 980.019,475.366 980.019,458.345 
		980.019,432.444 977.799,421.344 974.099,419.864 971.879,421.344 964.479,421.344 956.338,420.604 953.378,419.864 
		947.458,416.904 943.018,419.124 940.058,427.264 934.137,438.365 929.697,452.425 923.037,456.125 905.276,455.385 
		896.396,470.926 	"/>
	<polygon style="fill:#343434;" points="271.071,264.458 244.43,237.817 237.77,231.156 257.751,237.817 271.071,251.137 
		277.731,257.798 284.392,264.458 291.052,271.118 297.712,277.778 297.712,284.439 297.712,291.099 304.373,297.759 
		291.052,297.759 277.731,277.778 	"/>
	<polygon style="fill:#343434;" points="694.368,556.029 684.008,556.029 671.427,559.729 666.987,565.65 672.907,563.43 
		684.008,558.989 694.368,558.989 	"/>
	<polygon style="fill:#343434;" points="701.028,572.31 697.328,566.39 681.787,569.35 673.647,577.49 671.427,581.93 
		678.087,578.97 682.527,573.05 690.668,572.31 	"/>
	<polygon style="fill:#343434;" points="706.948,582.67 703.248,577.49 691.408,577.49 682.527,583.41 677.347,590.071 
		686.228,588.591 687.708,583.41 694.368,580.45 	"/>
	<polygon style="fill:#343434;" points="714.349,597.471 709.169,590.071 699.548,590.071 692.148,590.071 687.708,600.431 
		687.708,605.611 692.148,601.171 692.888,595.991 701.028,595.251 709.909,595.251 	"/>
	<polygon style="fill:#343434;" points="723.229,613.752 718.049,605.611 706.948,603.391 698.068,607.091 692.888,616.712 
		701.028,612.272 706.948,608.571 716.569,610.051 	"/>
	<polygon style="fill:#343434;" points="738.77,633.732 727.669,621.152 714.349,618.192 718.789,621.892 725.449,624.112 
		731.369,630.772 	"/>
	<polygon style="fill:#343434;" points="747.65,653.713 746.903,651.767 743.95,644.093 735.07,639.653 730.999,638.128 
		723.229,635.212 714.349,635.212 721.009,638.173 726.929,639.653 736.55,644.093 743.21,650.013 	"/>
	<polygon style="fill:#343434;" points="747.65,669.994 747.65,663.334 740.25,652.233 735.07,650.013 723.229,646.313 
		714.349,646.313 717.309,649.273 728.409,650.753 735.07,653.713 740.99,658.153 	"/>
	<polygon style="fill:#343434;" points="747.65,680.354 747.65,675.174 738.77,669.254 734.33,659.633 733.589,664.814 
		736.55,670.734 740.25,673.694 	"/>
	<polygon style="fill:#343434;" points="231.11,557.509 222.229,553.809 211.129,550.849 201.508,550.849 207.429,557.509 
		217.789,557.509 227.409,562.69 	"/>
	<polygon style="fill:#343434;" points="215.569,581.19 197.068,581.19 188.928,578.23 197.808,576.75 204.469,576.75 
		211.129,576.75 217.049,578.23 	"/>
	<polygon style="fill:#343434;" points="202.989,607.091 193.368,604.131 184.488,604.131 174.127,600.431 165.247,597.471 
		167.467,604.131 177.087,607.831 190.408,607.831 200.768,612.272 	"/>
	<polygon style="fill:#343434;" points="108.265,675.914 115.665,672.954 127.506,672.214 131.206,673.694 134.906,672.214 
		130.466,669.254 126.025,667.774 118.625,666.294 111.225,666.294 106.785,670.734 	"/>
	<polygon style="fill:#343434;" points="106.045,663.334 104.565,656.673 107.525,652.233 115.665,648.533 124.545,646.313 
		132.686,645.573 141.566,647.793 145.266,649.273 145.266,653.713 140.826,652.233 136.386,650.013 128.246,650.013 
		123.065,652.233 116.405,653.713 111.225,658.153 	"/>
	<polygon style="fill:#343434;" points="101.605,639.653 101.605,645.573 107.525,643.353 117.145,641.133 128.246,639.653 
		139.346,636.693 149.706,637.432 157.107,636.693 150.446,633.732 141.566,631.512 132.686,632.992 120.845,632.992 
		115.665,635.952 106.785,637.432 	"/>
	<polygon style="fill:#343434;" points="104.565,628.552 102.345,634.472 109.745,630.032 119.365,628.552 130.466,628.552 
		137.126,626.332 145.266,626.332 151.926,626.332 146.006,623.372 137.866,621.152 130.466,624.112 120.845,623.372 
		112.705,624.852 106.045,625.592 	"/>
	<path style="fill:#343434;" d="M127.506,595.991l4.44,2.22l7.4,3.7l7.4,5.18c0,0,3.7-4.44,2.96-4.44c-0.74,0-6.66-2.22-6.66-2.22
		l-1.48-4.44l-5.18-1.48l-4.44-2.96L127.506,595.991z"/>
	<polygon style="fill:#343434;" points="112.705,617.452 124.545,614.492 133.426,614.492 141.566,615.972 137.866,613.012 
		131.946,609.311 124.545,610.791 118.625,613.752 114.185,613.752 	"/>
	<path style="fill:#343434;" d="M488.64,788.398l13.321-1.48l8.14-4.44l2.96-2.96h-5.18c0,0-2.96,2.96-3.7,2.96
		c-0.74,0-8.14,1.48-8.14,1.48L488.64,788.398z"/>
	<polygon style="fill:#343434;" points="493.08,765.458 502.7,765.458 513.061,763.237 504.92,761.757 497.52,761.757 	"/>
</g>
<g id="sko">
	<path style="fill:#343434;" d="M631.465,818.74l-3.7,47.362c0,0-27.381,13.32-27.381,11.84s2.22-59.202,2.22-59.202H631.465z"/>
	<polyline style="fill:#343434;" points="485.68,854.261 479.759,845.225 531.28,845.225 544.142,869.062 488.64,869.062 	"/>
	<polygon style="fill:#343434;" points="32.042,834.28 66.083,835.02 76.444,857.221 32.782,857.221 	"/>
	<polygon style="fill:#343434;" points="118.625,832.8 158.587,833.54 168.947,855.001 119.365,852.781 	"/>
</g>
<g id="&#xF8;je">
	<polygon style="fill:#1B1B1B;" points="899.356,328.84 912.677,337.721 924.517,338.461 925.997,334.021 920.817,326.62 
		916.377,318.48 907.496,314.04 899.356,314.04 897.136,317 	"/>
	<polygon style="fill:#020203;" points="916.377,328.84 912.677,322.92 907.496,322.92 904.536,326.62 907.496,330.32 
		912.677,333.281 916.377,333.281 	"/>
</g>
<g id="&#xF8;re">
	<polygon style="fill:#CDCCCC;" points="919.337,225.236 931.177,211.176 937.838,197.115 937.838,182.315 934.877,171.214 
		925.257,168.994 909.716,180.834 900.096,200.075 896.396,211.176 891.216,223.016 891.216,237.077 887.516,246.697 	"/>
	<polygon style="fill:#CDCCCC;" points="973.359,211.176 988.16,200.075 994.82,188.975 1000,174.914 980.759,184.535 
		970.399,193.415 965.219,204.515 	"/>
	<polygon style="fill:#B4B4B4;" points="901.576,231.156 901.576,220.796 909.716,194.895 923.777,188.235 923.777,200.075 
		917.857,214.876 909.716,225.236 	"/>
	<polygon style="fill:#B4B4B4;" points="971.139,207.106 976.319,200.075 985.939,192.675 985.939,197.115 	"/>
</g>
</svg>
